<svg width="60" height="57" viewBox="0 0 60 57" fill="none" xmlns="http://www.w3.org/2000/svg">
<path d="M31.5719 31.0296C31.1894 31.4567 30.8361 31.8992 30.5103 32.3571C31.7074 30.8736 32.7107 29.7965 33.5442 29.0161C32.8479 29.649 32.1996 30.3282 31.5719 31.0296Z" fill="url(#paint0_linear_184_763)"/>
<path d="M43.3997 1.69384C43.2899 1.12786 42.9897 0.705942 42.4666 0.457252C42.259 0.359492 42.0429 0.277167 41.8234 0.213708C41.314 0.0627797 40.7874 0.0181878 40.2574 0.00275192C39.6605 -0.0143991 39.0705 0.0507735 38.4804 0.138244C37.2986 0.314899 36.1529 0.620186 35.0431 1.06268C33.4154 1.71099 31.8683 2.51537 30.3658 3.41065C29.3829 3.99722 28.4687 4.68326 27.5768 5.39674C25.6781 6.9146 23.896 8.56624 22.1602 10.2659C21.2065 11.2006 20.2752 12.1559 19.3644 13.1318C18.4416 14.1232 17.5463 15.1368 16.7092 16.2036C15.229 18.0953 13.8363 20.0488 12.519 22.0572C12.4246 22.1996 12.3286 22.3419 12.2308 22.4894C12.1639 22.4894 12.1073 22.4946 12.0507 22.4894C11.224 22.3968 10.4298 22.1824 9.66658 21.8565C8.23609 21.2443 7.03544 20.325 6.05434 19.1175C5.1813 18.0422 4.5724 16.8399 4.25337 15.4867C4.04411 14.6051 3.92405 13.7133 3.8846 12.8111C3.83143 11.5917 3.88803 10.374 4.0767 9.16653C4.08699 9.10307 4.07842 9.03789 4.07842 8.971C4.03897 8.97615 4.00638 8.971 3.98237 8.98473C2.68223 9.59873 1.3821 10.2145 0.0716818 10.8336C0.0510993 11.0892 0.0185096 11.3378 0.0133639 11.5865C0.00135744 12.0942 -0.00378778 12.6036 0.00307307 13.113C0.0116491 13.7476 0.0888335 14.377 0.210614 14.9996C0.392426 15.9257 0.685729 16.8193 1.03735 17.6923C1.18829 18.0662 1.33408 18.4418 1.54333 18.7882C2.18482 19.8413 2.9155 20.8275 3.76968 21.7193C4.28939 22.2613 4.85712 22.7484 5.50376 23.1377C6.21557 23.5665 6.97198 23.8889 7.76784 24.1205C8.69234 24.3898 9.63399 24.563 10.5997 24.5973C10.6648 24.599 10.7369 24.5853 10.7849 24.6745C10.7592 24.7345 10.7317 24.8048 10.6991 24.8734C10.5036 25.2902 10.2995 25.7035 10.1142 26.1254C9.5568 27.3929 9.06797 28.6826 8.74551 30.0307C8.62373 30.5367 8.51567 31.0426 8.48994 31.5623C8.42991 32.7406 8.69062 33.8502 9.23606 34.893C9.30124 35.0199 9.387 35.14 9.47962 35.248C9.82952 35.6528 10.2532 35.9632 10.7266 36.2102C11.5396 36.6338 12.4143 36.7728 13.32 36.7453C14.0592 36.7213 14.7951 36.6356 15.5223 36.5035C16.5892 36.308 17.644 36.0559 18.6817 35.7403C18.7709 35.7128 18.8635 35.6922 18.963 35.6665C18.963 35.8089 18.9733 35.9324 18.9613 36.0559C18.9236 36.4863 18.9236 36.9185 18.9699 37.349C18.999 37.6252 19.0402 37.9013 19.102 38.1723C19.1929 38.5702 19.3575 38.9389 19.6337 39.2459C20.2391 39.9183 20.9956 40.3042 21.896 40.3745C22.6061 40.4311 23.3145 40.3762 24.016 40.2355C24.7707 40.0846 25.5031 39.8582 26.2287 39.6078C26.7724 39.4192 27.3075 39.2065 27.8478 39.0093C27.913 38.9852 27.9782 38.9235 28.0674 38.9784C28.0897 39.1465 28.1085 39.3163 28.1343 39.4878C28.232 40.1635 28.3933 40.8238 28.6437 41.4618C28.9816 42.316 29.5476 42.9677 30.3212 43.4514C31.0124 43.8819 31.7602 44.1734 32.5492 44.3621C32.6796 44.3929 32.8099 44.4118 32.9403 44.4358C33.9694 43.5285 34.8956 42.5424 35.7807 41.5202C35.8167 41.479 35.8424 41.4293 35.8922 41.3572C35.7704 41.3435 35.676 41.3264 35.5817 41.3195C35.0929 41.2869 34.6092 41.2234 34.1272 41.1308C33.532 41.0176 32.9489 40.8616 32.3931 40.6129C31.7328 40.3179 31.2131 39.8651 30.846 39.2408C30.635 38.884 30.4755 38.505 30.376 38.1003C30.3417 37.9613 30.2971 37.8241 30.3057 37.6732C30.3709 37.6286 30.4326 37.5823 30.4961 37.5411C31.4549 36.9185 32.3948 36.2702 33.3159 35.5945C34.556 34.6838 35.7309 33.6959 36.8064 32.5931C37.4033 31.9825 37.9813 31.3513 38.5439 30.7099C38.8972 30.3068 39.2214 29.8746 39.5336 29.439C39.7342 29.1594 39.9075 28.8559 40.0601 28.5472C40.3071 28.0515 40.3363 27.5284 40.1356 27.0104C39.9469 26.525 39.5764 26.2678 39.0516 26.2506C38.9092 26.2455 38.7617 26.2506 38.6211 26.2764C37.7755 26.4307 36.9693 26.7051 36.2078 27.1048C35.8973 27.2677 35.5954 27.4478 35.3038 27.6399C34.7961 27.9743 34.3159 28.3499 33.8545 28.7512C33.7807 28.8164 33.707 28.8816 33.6332 28.9468C33.6075 28.9708 33.5801 28.9965 33.5526 29.0205C32.7173 29.7992 31.7156 30.878 30.5184 32.3615C29.5733 33.6907 28.8701 35.1537 28.3915 36.7453C28.3298 36.946 28.2818 37.1501 28.2235 37.3645C28.1308 37.3919 28.0416 37.4262 27.949 37.4468C27.4533 37.5548 26.9576 37.6749 26.4585 37.7658C25.757 37.891 25.0486 37.9407 24.3351 37.9013C24.028 37.8841 23.7262 37.831 23.4312 37.7366C23.0452 37.6132 22.7245 37.3971 22.4775 37.0746C22.3368 36.8894 22.2236 36.6904 22.1345 36.4761C21.9835 36.1107 21.8943 35.7266 21.8583 35.3338C21.8377 35.116 21.8068 34.8964 21.8549 34.6701C21.9166 34.6392 21.9749 34.6066 22.0367 34.5792C23.083 34.0766 24.1327 33.5827 25.1755 33.0699C26.901 32.2226 28.5511 31.2416 30.1428 30.1645C32.1238 28.8233 34.0363 27.3895 35.8767 25.8596C37.2386 24.7293 38.5113 23.5065 39.621 22.1224C40.1991 21.402 40.7462 20.6628 41.163 19.8344C41.4512 19.2599 41.7187 18.675 41.8748 18.0456C41.9417 17.7746 41.9846 17.5002 41.9674 17.2189C41.9434 16.8296 41.7616 16.5449 41.4031 16.3854C41.3071 16.3425 41.2076 16.3065 41.1064 16.2773C40.8749 16.2104 40.6382 16.1796 40.3963 16.1744C39.9435 16.1658 39.4941 16.1761 39.0464 16.2413C38.6005 16.3065 38.1562 16.3819 37.7257 16.526C36.9882 16.773 36.2592 17.0371 35.5405 17.3338C34.2627 17.8638 33.014 18.4572 31.846 19.2016C29.7671 20.5273 27.8341 22.0366 26.1137 23.81C25.1772 24.7756 24.2716 25.767 23.4209 26.808C21.7468 28.8627 20.5119 31.1575 19.656 33.6616C19.5376 34.0063 19.433 34.3545 19.3146 34.7284C19.2632 34.7489 19.2186 34.7695 19.174 34.7798C18.903 34.8433 18.6337 34.9136 18.3593 34.9616C17.8773 35.0474 17.3919 35.1143 16.9099 35.1983C16.4056 35.2858 15.9014 35.3166 15.392 35.26C14.8431 35.2 14.3165 35.0645 13.8191 34.8244C12.9066 34.3871 12.224 33.7027 11.706 32.8435C11.5722 32.6205 11.4813 32.377 11.4212 32.1231C11.3475 31.8144 11.3098 31.5006 11.3046 31.1833C11.2892 30.4286 11.4058 29.6911 11.5739 28.9588C11.8655 27.6913 12.3114 26.477 12.8311 25.2885C12.8843 25.165 12.9443 25.0449 12.9975 24.9214C13.037 24.8322 13.1021 24.7877 13.1982 24.7842C13.2548 24.7825 13.3131 24.7791 13.3697 24.7756C14.1759 24.7311 14.9769 24.6487 15.7762 24.5424C16.6715 24.4223 17.5583 24.2543 18.4176 23.973C19.457 23.6334 20.493 23.2835 21.5187 22.9079C23.5684 22.1584 25.5477 21.2528 27.4293 20.1449C30.7071 18.2154 33.7979 16.0286 36.6383 13.4954C37.5491 12.6825 38.4255 11.8352 39.2317 10.9176C40.4409 9.54042 41.4529 8.02599 42.3208 6.41551C42.9057 5.32985 43.271 4.17559 43.434 2.95444C43.4803 2.53595 43.4803 2.11404 43.3997 1.69384ZM30.1771 35.7609C30.4292 34.5603 30.8512 33.4215 31.4618 32.3581C31.4618 32.3581 31.4824 32.3221 31.5218 32.2569C31.5338 32.238 31.5475 32.2157 31.5613 32.1917C32.0227 31.4354 34.0432 28.3568 36.5319 28.0326C36.5834 28.0258 36.6349 28.0206 36.688 28.0172C36.8287 28.0035 36.9762 28.0172 37.1168 28.0429C37.429 28.0961 37.5594 28.2487 37.5902 28.566C37.5937 28.614 37.5954 28.6621 37.6022 28.7684C37.5765 28.9107 37.5542 29.1114 37.5028 29.3052C37.4033 29.686 37.2626 30.053 37.0585 30.3943C36.3947 31.5005 35.6383 32.5365 34.7138 33.4438C33.7807 34.3596 32.7636 35.1743 31.6848 35.9135C31.4395 36.0816 31.1736 36.2171 30.9078 36.3491C30.7637 36.4212 30.6025 36.4658 30.4447 36.4983C30.2577 36.5344 30.1462 36.4435 30.1393 36.2514C30.1342 36.085 30.1445 35.9186 30.1771 35.7609ZM21.9921 33.2294C22.0367 33.0236 22.0744 32.8143 22.143 32.6154C22.5581 31.3959 23.0367 30.2039 23.6027 29.048C24.2493 27.7308 25.064 26.525 25.9851 25.3862C26.5648 24.6693 27.1737 23.9781 27.8358 23.335C28.0571 23.1223 28.2869 22.9182 28.5202 22.7192C29.738 21.6747 30.9935 20.6783 32.3211 19.7761C32.9797 19.3285 33.6572 18.9083 34.3776 18.5636C35.0654 18.2343 35.779 17.989 36.5319 17.8672C36.8338 17.8192 37.1408 17.802 37.4462 17.7712C37.7669 17.7832 38.0791 17.8243 38.3912 17.8912C38.6142 17.9393 38.8097 18.061 38.9418 18.2377C38.9418 18.2377 38.9418 18.2377 38.9435 18.2394C39.0224 18.3166 40.681 20.0831 34.1975 26.0448C34.1907 26.0517 34.1838 26.0585 34.1787 26.0637C33.472 26.7566 32.7207 27.3997 31.9403 28.0086C31.834 28.0909 31.7293 28.1733 31.6213 28.2556C30.6899 28.9656 29.7431 29.6568 28.7655 30.3017C28.2132 30.6653 27.6351 30.9912 27.064 31.3256C25.721 32.1094 24.3299 32.804 22.932 33.4815C22.7691 33.5604 22.5907 33.6084 22.4192 33.665C22.3746 33.6787 22.3248 33.6856 22.2768 33.6839C22.1104 33.6839 22.0041 33.593 21.9852 33.4283C21.9784 33.3631 21.9784 33.2945 21.9921 33.2294ZM40.3157 5.75176C40.1425 6.48583 39.844 7.17015 39.4873 7.83218C39.0756 8.5954 38.5782 9.3003 38.043 9.9812C37.3055 10.9176 36.5045 11.7975 35.6692 12.6482C34.5646 13.7716 33.4137 14.8452 32.2148 15.8657C31.9746 16.0698 31.7225 16.2636 31.4601 16.4403C29.5665 17.7197 27.6266 18.9289 25.6146 20.0145C24.6524 20.5342 23.6799 21.035 22.6593 21.4363C21.4587 21.908 20.2186 22.239 18.9493 22.4637C17.8893 22.6524 16.8207 22.7518 15.7453 22.7947C15.476 22.8067 15.2067 22.8084 14.9391 22.7947C14.7676 22.7861 14.5978 22.7467 14.4297 22.7072C14.3697 22.6935 14.3182 22.6421 14.2393 22.5958C14.3062 22.4688 14.3542 22.3762 14.4057 22.2853C16.0317 19.4263 17.8464 16.6924 19.8841 14.1094C20.5976 13.2039 21.3506 12.3326 22.1499 11.5008C23.5495 10.0447 25.0469 8.69659 26.5974 7.40683C27.69 6.49783 28.8135 5.62656 29.9558 4.7793C30.3057 4.52032 30.6779 4.30765 31.0587 4.10527C32.1856 3.50327 33.3434 2.96644 34.5457 2.53424C35.2147 2.29412 35.8939 2.08831 36.5954 1.96997C37.158 1.87564 37.7206 1.83105 38.2849 1.94424C38.5868 2.00599 38.8801 2.10032 39.1511 2.2461C39.8474 2.62342 40.2539 3.2117 40.4015 3.9835C40.5147 4.57864 40.4546 5.16691 40.3157 5.75176Z" fill="url(#paint1_linear_184_763)"/>
<path d="M13.9295 52.1888C13.9517 51.8886 13.8951 51.6211 13.794 51.3467C13.9397 51.1288 14.1456 50.9573 14.324 50.7584C14.504 50.5594 14.6962 50.3708 14.878 50.1821C15.1009 50.1873 15.1078 50.1855 15.1558 50.3553C15.2021 50.5217 15.2433 50.6898 15.269 50.8596C15.3205 51.1906 15.3582 51.525 15.4011 51.8578C15.4148 51.9624 15.4285 52.0653 15.4423 52.1665C15.6738 52.2248 16.3959 52.2231 16.6258 52.1648C16.6172 51.8921 16.6086 51.6159 16.4971 51.3467C16.5777 51.2283 16.6772 51.1271 16.7767 51.0242C17.0031 50.7893 17.2278 50.5526 17.4542 50.3176C17.4799 50.2902 17.504 50.2593 17.5314 50.2319C17.6463 50.1238 17.7938 50.1598 17.8453 50.3142C17.8796 50.4137 17.907 50.5166 17.9242 50.6212C17.9859 51.0191 18.0425 51.417 18.0991 51.8166C18.1163 51.9384 18.1317 52.0601 18.1472 52.1751C18.3873 52.2197 18.9653 52.2231 19.2397 52.1802C19.2277 52.127 19.2192 52.0756 19.2037 52.0241C19.1128 51.7394 19.1283 51.4564 19.2175 51.1752C19.3066 50.899 19.4301 50.64 19.5999 50.4051C19.6668 50.3125 19.7457 50.225 19.8315 50.1495C20.1214 49.8957 20.4919 49.8785 20.8143 50.0929C20.9944 50.213 21.1282 50.3759 21.2328 50.5611C21.4489 50.9402 21.5982 51.3432 21.6736 51.772C21.6959 51.9041 21.7148 52.0361 21.7371 52.1785C21.9343 52.2385 22.135 52.2059 22.334 52.2059C22.5227 52.2059 22.7148 52.2385 22.9103 52.1733C22.8983 51.8869 22.8897 51.6108 22.7731 51.3347C22.9497 51.146 23.123 50.9556 23.2997 50.7687C23.4575 50.6006 23.6187 50.4359 23.7799 50.2713C23.9411 50.1049 24.0904 50.1409 24.1435 50.3725C24.2139 50.6709 24.2687 50.9728 24.3168 51.2763C24.3528 51.5027 24.3665 51.7343 24.394 51.9624C24.4025 52.0361 24.4231 52.1099 24.4368 52.1785C24.7027 52.2248 26.1469 52.2214 26.3853 52.1733C26.3236 51.7754 26.1383 51.4358 25.9136 51.1117C25.6924 50.7927 25.4076 50.5371 25.0955 50.3228C25.1281 50.1152 25.3836 49.3177 25.5157 49.0107C26.2395 48.6985 26.9771 48.3795 27.7043 48.064C27.8964 48.1857 27.8981 48.1874 27.8621 48.3349C27.7712 48.7071 27.6752 49.0776 27.5808 49.4532C27.327 49.5612 27.08 49.6642 26.8124 49.7791C26.8553 49.8357 26.8844 49.8803 26.9188 49.918C27.4265 50.4943 27.7318 51.1683 27.8673 51.9212C27.8861 52.0241 27.893 52.1305 27.893 52.2368C27.8964 52.6587 27.8947 53.0823 27.8947 53.5043C27.8947 53.542 27.8964 53.5814 27.8913 53.6192C27.8793 53.7307 27.8175 53.7958 27.7095 53.8061C27.6426 53.813 27.5757 53.8095 27.5088 53.8095C21.7868 53.8095 16.0649 53.8095 10.3429 53.8113C10.0033 53.8113 9.69802 53.7409 9.43217 53.5231C9.19204 53.3259 9.04624 53.0721 8.99307 52.7685C8.95534 52.5592 8.95534 52.3466 8.99993 52.1373C9.08055 51.7703 9.20576 51.417 9.39786 51.0928C9.45961 50.9865 9.54537 50.8922 9.62942 50.803C9.71175 50.7172 9.82324 50.6812 9.9433 50.6812C10.1663 50.6795 10.3275 50.8424 10.3052 51.0688C10.2966 51.1614 10.2589 51.254 10.2263 51.3432C10.1783 51.4684 10.1183 51.5885 10.0737 51.7154C10.0496 51.7857 10.0342 51.8646 10.0394 51.9401C10.0462 52.0824 10.1285 52.1699 10.2692 52.1939C10.3532 52.2076 10.4407 52.2111 10.5265 52.2111C11.5728 52.2128 12.619 52.2128 13.6653 52.2111C13.7494 52.2094 13.8334 52.1974 13.9295 52.1888ZM20.4987 52.1682C20.4919 51.9658 20.4524 51.7909 20.3889 51.6211C20.3358 51.4753 20.25 51.3998 20.178 51.4238C20.0682 51.4616 20.0545 51.5593 20.0373 51.6537C19.9979 51.856 20.0373 51.9572 20.2088 52.067C20.2877 52.1185 20.3684 52.1733 20.4987 52.1682Z" fill="#4E4E4E"/>
<path d="M50.0718 52.1745C50.1027 52.1899 50.1096 52.1968 50.1199 52.1985C50.4286 52.2706 50.6361 52.1522 50.7699 51.8675C50.8265 51.7474 50.9088 51.6377 50.9877 51.5296C51.0649 51.4216 51.1799 51.4096 51.2982 51.4404C51.4114 51.4696 51.4766 51.5519 51.5023 51.66C51.516 51.7149 51.5143 51.7749 51.516 51.8315C51.5178 51.9361 51.516 52.0407 51.516 52.1488C51.7424 52.2585 51.9586 52.1951 52.1815 52.2037C52.257 51.8795 52.1266 51.5982 52.0941 51.2998C52.4354 50.9482 52.775 50.5966 53.1146 50.2467C53.1352 50.2262 53.1575 50.2073 53.1815 50.1919C53.2656 50.1438 53.389 50.1781 53.4251 50.2656C53.4679 50.3719 53.5057 50.4817 53.5348 50.5932C53.6463 51.0322 53.6875 51.4816 53.7064 51.9327C53.7098 52.0081 53.7064 52.0836 53.7064 52.1694C53.895 52.2414 54.0768 52.2037 54.2552 52.2088C54.4353 52.214 54.6171 52.2071 54.8195 52.2054C54.8075 52.1368 54.8058 52.0922 54.7921 52.051C54.7029 51.768 54.708 51.4833 54.7887 51.2003C54.8727 50.9019 55.0151 50.6292 55.1969 50.3788C55.2586 50.2948 55.3324 50.2159 55.4113 50.1473C55.7234 49.8849 56.1179 49.8797 56.4438 50.1301C56.5982 50.2485 56.72 50.3977 56.8143 50.5657C57.0613 51.0048 57.2208 51.4747 57.2826 51.9773C57.2894 52.0339 57.2946 52.0922 57.3014 52.1574C57.334 52.1728 57.3666 52.2019 57.4009 52.2019C57.7371 52.2037 58.0733 52.2002 58.4078 52.1985C58.4249 52.1985 58.4403 52.1831 58.4575 52.1745C58.5021 51.9344 58.5004 51.9172 58.3683 51.3118C58.4386 51.2381 58.5175 51.1557 58.5947 51.0734C58.8177 50.8367 59.0424 50.5983 59.2654 50.3616C59.3117 50.3136 59.358 50.2639 59.4094 50.221C59.5192 50.1284 59.665 50.1661 59.701 50.3068C59.7662 50.5675 59.8228 50.8299 59.8708 51.094C60.0149 51.9018 60.0029 52.7182 59.996 53.5346C59.996 53.5637 59.9978 53.5929 59.9943 53.6203C59.9806 53.7318 59.9206 53.7953 59.8091 53.8038C59.7233 53.8107 59.6358 53.8073 59.5501 53.8073C56.9481 53.8073 54.3444 53.8056 51.7424 53.8107C51.4663 53.8107 51.2056 53.7936 50.9912 53.5912C50.9432 53.6255 50.9037 53.6529 50.866 53.6804C50.7459 53.7695 50.6138 53.8141 50.4629 53.809C50.3291 53.8038 50.1953 53.8073 50.053 53.8073C50.0049 53.9119 49.962 54.0062 49.9209 54.1023C49.691 54.6374 49.3823 55.1193 48.9587 55.5224C48.6259 55.8397 48.2486 56.0746 47.7975 56.1861C47.2777 56.3148 46.7615 56.2907 46.2709 56.0866C45.5128 55.7711 45.1063 55.1742 45.0051 54.3664C44.9656 54.0508 44.9811 53.7352 45.0583 53.4231C45.1612 53.0132 45.2744 52.6067 45.4562 52.2225C45.5128 52.1025 45.5848 51.9876 45.662 51.8778C45.722 51.7903 45.8112 51.7286 45.9142 51.6943C46.1183 51.6257 46.3104 51.7389 46.3412 51.9498C46.3601 52.0853 46.3464 52.2174 46.3001 52.3477C46.2246 52.5553 46.1491 52.7628 46.0805 52.972C46.0445 53.0801 46.0102 53.1916 45.9913 53.3048C45.8884 53.9291 46.2709 54.4796 46.8918 54.6048C47.0616 54.6391 47.2314 54.6494 47.4064 54.622C47.7837 54.5619 48.1233 54.4144 48.4338 54.1966C48.6602 54.0371 48.7786 53.8296 48.7614 53.5363C48.734 53.0406 48.6293 52.5673 48.4372 52.1128C48.3823 51.9807 48.3189 51.8504 48.2537 51.7063C48.2949 51.6583 48.3343 51.6068 48.3789 51.5605C48.6636 51.2741 48.9501 50.9911 49.2331 50.703C49.3188 50.6155 49.408 50.5949 49.5453 50.6464C49.5796 50.7098 49.631 50.7904 49.6722 50.8745C49.8386 51.2226 49.9415 51.5914 50.0204 51.9687C50.0358 52.0459 50.0564 52.1179 50.0718 52.1745ZM56.0716 52.2019C56.0665 51.9207 56.0185 51.6994 55.9001 51.4988C55.8367 51.389 55.7029 51.3959 55.6531 51.5125C55.5639 51.7286 55.5605 51.9618 55.8006 52.0767C55.8778 52.1145 55.955 52.1488 56.0716 52.2019Z" fill="#4E4E4E"/>
<path d="M35.8692 50.9455C35.8692 51.8099 35.8641 52.6743 35.8727 53.537C35.8761 53.8835 35.7972 54.2007 35.636 54.5043C35.4267 54.8971 35.1712 55.2555 34.8522 55.5643C34.444 55.9587 33.9569 56.1817 33.3909 56.2349C33.0942 56.2623 32.7958 56.264 32.5042 56.1988C31.6347 56.0102 31.0104 55.3001 30.9007 54.3808C30.8646 54.0738 30.8784 53.7685 30.9487 53.465C31.0413 53.0619 31.1579 52.6674 31.3243 52.2884C31.3843 52.1495 31.4683 52.0174 31.5524 51.8905C31.6227 51.7842 31.7325 51.7173 31.8577 51.6881C32.0223 51.6487 32.1647 51.7259 32.2247 51.8854C32.259 51.9763 32.2761 52.0689 32.2453 52.1666C32.2058 52.2953 32.1715 52.4239 32.1304 52.5525C32.0618 52.7618 31.9794 52.9676 31.9228 53.1803C31.7359 53.8886 32.1372 54.4957 32.8576 54.6209C33.0394 54.6518 33.2194 54.6501 33.3995 54.6192C33.746 54.5626 34.0615 54.4254 34.348 54.2282C34.5692 54.0755 34.6807 53.8714 34.6584 53.5919C34.5984 52.875 34.5486 52.1581 34.4937 51.4394C34.4697 51.1342 34.4474 50.8271 34.4234 50.5219C34.3891 50.0725 34.3565 49.6231 34.3188 49.1738C34.3102 49.0795 34.3359 49.0074 34.4011 48.9405C34.7373 48.5975 35.07 48.2528 35.4062 47.9098C35.4387 47.8772 35.4816 47.8497 35.5262 47.8326C35.6771 47.7726 35.8263 47.8514 35.8555 48.011C35.8709 48.095 35.8675 48.1825 35.8675 48.2699C35.8692 49.1601 35.8692 50.0519 35.8692 50.9455Z" fill="#4E4E4E"/>
<path d="M38.2484 53.7991C38.1197 53.7991 38.034 53.7991 37.9482 53.7991C37.8899 53.7991 37.8333 53.8008 37.775 53.7991C37.1216 53.7837 36.7425 53.4321 36.6722 52.7838C36.6448 52.5214 36.6825 52.2658 36.746 52.0154C36.8454 51.6227 37.0032 51.2522 37.1987 50.8989C37.3017 50.7137 37.4269 50.5439 37.5949 50.4101C37.9671 50.1099 38.449 50.122 38.8023 50.4392C38.9395 50.5627 39.0476 50.7068 39.1385 50.868C39.3975 51.3294 39.5278 51.825 39.5347 52.3516C39.5398 52.7152 39.5278 53.0805 39.5381 53.4458C39.5501 53.8746 39.4712 54.2845 39.3306 54.6858C39.1625 55.1678 38.9636 55.6326 38.6823 56.0596C38.5657 56.2363 38.4405 56.4044 38.2535 56.5193C38.2124 56.5004 38.1763 56.4884 38.1438 56.4695C37.7887 56.2603 37.432 56.0528 37.0787 55.8401C36.9055 55.7355 36.89 55.6171 37.0324 55.4731C37.3137 55.1849 37.5915 54.8916 37.8213 54.5606C37.9517 54.372 38.0649 54.1713 38.1832 53.9741C38.2089 53.9346 38.2175 53.8866 38.2484 53.7991ZM38.2707 52.1904C38.2124 51.9434 38.2261 51.7136 38.022 51.5626C37.8625 51.6861 37.811 51.8593 37.7699 52.0343C37.7527 52.1098 37.8145 52.1835 37.8985 52.1886C38.01 52.1955 38.1232 52.1904 38.2707 52.1904Z" fill="#4E4E4E"/>
<path d="M41.9401 50.6984C41.9503 51.0534 41.9589 51.4084 41.9692 51.7617C41.9829 52.2214 41.9949 52.681 42.0172 53.1407C42.0241 53.2762 41.9881 53.3739 41.8852 53.4666C41.6708 53.6586 41.4684 53.8645 41.266 54.0686C41.1666 54.1697 41.0585 54.2486 40.911 54.1989C40.7601 54.1492 40.7292 54.0137 40.7172 53.8765C40.6932 53.5986 40.6709 53.3225 40.6469 53.0446C40.5749 52.1854 40.5011 51.3244 40.4274 50.4651C40.3913 50.0346 40.3588 49.6059 40.3176 49.1754C40.3073 49.069 40.3399 48.9884 40.4102 48.9164C40.7326 48.5888 41.0551 48.2595 41.3792 47.9319C41.3998 47.9114 41.4204 47.8925 41.4444 47.877C41.6313 47.7553 41.8149 47.8342 41.8474 48.0537C41.8543 48.1 41.8526 48.1497 41.8526 48.1978C41.8766 48.9747 41.8989 49.7499 41.9229 50.5269C41.9246 50.5835 41.9229 50.6418 41.9229 50.6984C41.9298 50.6984 41.9349 50.6984 41.9401 50.6984Z" fill="#4E4E4E"/>
<path d="M51.2564 50.2858C51.1432 50.4075 51.0403 50.519 50.9357 50.6288C50.7985 50.7711 50.7076 50.7746 50.5755 50.6339C50.368 50.411 50.1571 50.1914 49.965 49.9616C50.1811 49.6735 50.5567 49.2824 50.747 49.1452C50.6733 49.0577 50.6013 48.972 50.5189 48.8742C50.711 48.6753 50.8928 48.4798 51.0832 48.2928C51.1638 48.2122 51.2804 48.2173 51.3696 48.298C51.5257 48.4403 51.6766 48.5861 51.8241 48.7387C51.8996 48.8159 51.8944 48.9308 51.8275 49.0269C51.7949 49.0732 51.7606 49.1143 51.7058 49.1864C51.8618 49.1727 51.9442 49.2498 52.0231 49.3356C52.2049 49.5328 52.3884 49.7266 52.5822 49.9342C52.5479 49.9839 52.5221 50.0336 52.4861 50.0748C52.3198 50.26 52.1517 50.4435 51.9802 50.6236C51.831 50.7814 51.7606 50.7814 51.5994 50.6271C51.4862 50.5173 51.3782 50.4075 51.2564 50.2858Z" fill="#4E4E4E"/>
<path d="M55.7036 49.254C55.5612 49.3878 55.4377 49.5061 55.3125 49.6228C55.1736 49.7531 55.0776 49.7566 54.9438 49.6245C54.7517 49.4375 54.5613 49.2472 54.3744 49.0551C54.2526 48.9299 54.2509 48.8304 54.3692 48.7086C54.563 48.5097 54.7585 48.3124 54.9592 48.1186C55.081 48.002 55.1856 48.0054 55.3039 48.1255C55.3914 48.213 55.4737 48.3073 55.5629 48.3948C55.6024 48.4342 55.6487 48.4668 55.7018 48.5114C55.839 48.3742 55.9642 48.2438 56.0963 48.1186C56.2181 48.002 56.3278 48.0037 56.441 48.1221C56.6606 48.3485 56.8784 48.5783 57.0945 48.8081C57.1133 48.827 57.1219 48.8561 57.1425 48.8956C56.9058 49.1426 56.6709 49.3947 56.4307 49.6399C56.3261 49.748 56.2164 49.7463 56.1049 49.6451C56.0346 49.5816 55.9694 49.5096 55.9008 49.4427C55.8373 49.3844 55.7756 49.3244 55.7036 49.254Z" fill="#4E4E4E"/>
<path d="M12.3139 49.6818C12.4117 49.5875 12.4992 49.5 12.5866 49.4143C12.6278 49.3731 12.6673 49.3319 12.7084 49.2925C12.8559 49.1536 12.9331 49.1501 13.0703 49.2925C13.3018 49.5343 13.5282 49.7813 13.7649 50.0334C13.7289 50.0849 13.7032 50.138 13.6654 50.1775C13.4802 50.3713 13.2933 50.5651 13.1046 50.7538C12.9382 50.9201 12.8456 50.9167 12.6707 50.7486C12.5541 50.6354 12.4374 50.5222 12.3105 50.3987C12.2351 50.4673 12.1716 50.5222 12.1116 50.5822C12.0635 50.6286 12.019 50.68 11.9761 50.7315C11.8114 50.9338 11.6434 50.8995 11.4976 50.7332C11.3261 50.5394 11.134 50.3644 10.9522 50.1809C10.9127 50.1415 10.8784 50.0969 10.8407 50.054C10.863 50.018 10.8733 49.9905 10.8921 49.9717C11.098 49.7573 11.3072 49.5463 11.5147 49.3337C11.5422 49.3062 11.5679 49.2788 11.597 49.253C11.7017 49.1639 11.8063 49.1656 11.9006 49.2616C11.9812 49.3439 12.055 49.4331 12.1339 49.5155C12.1853 49.5703 12.2436 49.6184 12.3139 49.6818Z" fill="#4E4E4E"/>
<path d="M18.0893 55.2988C17.8526 55.5527 17.6399 55.7859 17.4221 56.0123C17.3415 56.0963 17.2283 56.0912 17.1374 56.014C17.086 55.9711 17.0414 55.9197 16.9933 55.8734C16.9316 55.8134 16.8699 55.7533 16.8081 55.6933C16.7944 55.6813 16.7755 55.6744 16.7412 55.6573C16.6417 55.7636 16.5406 55.8768 16.4359 55.9849C16.3279 56.0963 16.225 56.1032 16.1135 55.9952C15.8871 55.7756 15.6659 55.5509 15.4309 55.316C15.4686 55.2645 15.4944 55.2148 15.5321 55.1771C15.7173 54.9832 15.9043 54.7912 16.0946 54.6008C16.2113 54.4841 16.3245 54.4859 16.4411 54.6076C16.5406 54.7105 16.6332 54.8203 16.7395 54.9369C16.8681 54.8803 16.9436 54.7654 17.0362 54.6762C17.2626 54.4601 17.3158 54.4584 17.5233 54.6814C17.7017 54.8786 17.8835 55.0759 18.0893 55.2988Z" fill="#4E4E4E"/>
<path d="M24.3628 55.3054C24.1364 55.5507 23.9374 55.7702 23.7316 55.9846C23.6184 56.103 23.5087 56.0995 23.3835 55.9829C23.272 55.8783 23.1657 55.7685 23.0439 55.6485C22.9084 55.7497 22.8192 55.8834 22.7077 55.9949C22.6117 56.091 22.5019 56.0995 22.4042 56.0052C22.1709 55.7805 21.9445 55.549 21.701 55.3072C21.7473 55.2506 21.7782 55.206 21.8176 55.1665C21.9857 54.9967 22.1555 54.8269 22.3253 54.6571C22.3596 54.6228 22.3922 54.5868 22.4299 54.5594C22.5139 54.4959 22.6151 54.4976 22.6906 54.5748C22.8038 54.6897 22.9101 54.8132 23.0336 54.9487C23.1228 54.863 23.2034 54.7841 23.2857 54.7052C23.3269 54.6657 23.3646 54.6211 23.4092 54.5851C23.5172 54.4925 23.6116 54.4891 23.7128 54.5885C23.8551 54.7309 23.9906 54.8801 24.1261 55.0276C24.2016 55.1116 24.2719 55.2008 24.3628 55.3054Z" fill="#4E4E4E"/>
<path d="M21.2499 48.3845C21.1693 48.4771 21.1144 48.544 21.0543 48.6058C20.8828 48.7876 20.713 48.9694 20.5381 49.1478C20.4266 49.261 20.3203 49.2695 20.2105 49.1683C20.0013 48.9711 19.7938 48.7704 19.5931 48.5663C19.4833 48.4549 19.4885 48.3211 19.5982 48.2113C19.7886 48.0209 19.979 47.8323 20.1728 47.647C20.322 47.503 20.4163 47.5064 20.5604 47.6573C20.7868 47.8906 21.008 48.129 21.2499 48.3845Z" fill="#4E4E4E"/>
<path d="M58.0125 49.2129C58.1274 49.0962 58.22 49.0002 58.3126 48.9076C58.4687 48.7515 58.6214 48.5937 58.7809 48.4428C58.8769 48.3519 59.0055 48.3433 59.0879 48.4273C59.3331 48.6812 59.5732 48.9401 59.8082 49.1906C59.7945 49.2266 59.7928 49.2472 59.7808 49.2609C59.5595 49.4993 59.34 49.7377 59.1153 49.9744C59.0107 50.0841 58.8941 50.0927 58.7894 49.9915C58.5373 49.7428 58.2886 49.4907 58.0125 49.2129Z" fill="#4E4E4E"/>
<path d="M37.1701 36.4917H38.6656L41.5212 42.4465H41.5401V36.4917H42.9482V45.3691H41.4441L38.597 39.4262H38.5782V45.3691H37.1701V36.4917Z" fill="#010101"/>
<path d="M47.1111 36.4917H48.6546L51.2135 45.3691H49.6511L49.1332 43.3915H46.5743L46.0375 45.3691H44.5145L47.1111 36.4917ZM46.967 41.9371H48.7404L47.8777 38.6802H47.8589L46.967 41.9371Z" fill="#010101"/>
<path d="M52.601 36.4917H54.1051V40.1723L56.7789 36.4917H58.6569L55.9831 39.9974L58.9159 45.3691H57.0276L54.9678 41.378L54.1051 42.51V45.3691H52.601V36.4917Z" fill="#010101"/>
<defs>
<linearGradient id="paint0_linear_184_763" x1="33.2289" y1="30.3626" x2="30.7891" y2="31.0203" gradientUnits="userSpaceOnUse">
<stop stop-color="#CC1E4F"/>
<stop offset="1" stop-color="#FAA71B"/>
</linearGradient>
<linearGradient id="paint1_linear_184_763" x1="-0.000185924" y1="22.2144" x2="43.4634" y2="22.2144" gradientUnits="userSpaceOnUse">
<stop stop-color="#FAA71B"/>
<stop offset="1" stop-color="#CC1E4F"/>
</linearGradient>
</defs>
</svg>
